<svg width="19" height="22" viewBox="0 0 19 22" fill="none" xmlns="http://www.w3.org/2000/svg">
<path d="M16.6923 17.5H6.3077C5.80257 17.5 5.375 17.325 5.025 16.975C4.675 16.625 4.5 16.1974 4.5 15.6923V2.30773C4.5 1.8026 4.675 1.37503 5.025 1.02503C5.375 0.675031 5.80257 0.500031 6.3077 0.500031H13.25L18.5 5.74998V15.6923C18.5 16.1974 18.325 16.625 17.975 16.975C17.625 17.325 17.1974 17.5 16.6923 17.5ZM12.5 6.49998V2.00001H6.3077C6.23077 2.00001 6.16024 2.03206 6.09613 2.09616C6.03203 2.16027 5.99998 2.2308 5.99998 2.30773V15.6923C5.99998 15.7692 6.03203 15.8397 6.09613 15.9039C6.16024 15.968 6.23077 16 6.3077 16H16.6923C16.7692 16 16.8397 15.968 16.9038 15.9039C16.9679 15.8397 17 15.7692 17 15.6923V6.49998H12.5ZM2.3077 21.5C1.80257 21.5 1.375 21.325 1.025 20.975C0.675 20.625 0.5 20.1974 0.5 19.6923V6.50003H1.99998V19.6923C1.99998 19.7692 2.03202 19.8397 2.09613 19.9039C2.16024 19.968 2.23077 20 2.3077 20H12.5V21.5L2.3077 21.5Z" fill="#676C80"/>
</svg>
